<svg width="256" height="256" viewBox="0 0 256 256" xmlns="http://www.w3.org/2000/svg">
  <defs>
    <linearGradient id="grad1" x1="0%" y1="0%" x2="100%" y2="100%">
      <stop offset="0%" style="stop-color:#667eea;stop-opacity:1" />
      <stop offset="100%" style="stop-color:#764ba2;stop-opacity:1" />
    </linearGradient>
  </defs>
  
  <!-- Background circle -->
  <circle cx="128" cy="128" r="120" fill="url(#grad1)" stroke="#2c3e50" stroke-width="4"/>
  
  <!-- Video camera body -->
  <rect x="60" y="90" width="100" height="70" rx="8" fill="#2c3e50"/>
  
  <!-- Camera lens -->
  <circle cx="95" cy="125" r="25" fill="#34495e" stroke="#ecf0f1" stroke-width="3"/>
  <circle cx="95" cy="125" r="18" fill="#2c3e50"/>
  <circle cx="95" cy="125" r="12" fill="#667eea"/>
  
  <!-- Viewfinder -->
  <rect x="130" y="105" width="25" height="15" rx="2" fill="#34495e"/>
  <rect x="132" y="107" width="21" height="11" rx="1" fill="#ecf0f1"/>
  
  <!-- Record button -->
  <circle cx="145" cy="95" r="6" fill="#e74c3c"/>
  
  <!-- Film strip -->
  <rect x="40" y="170" width="176" height="20" fill="#f39c12"/>
  <rect x="45" y="172" width="8" height="16" fill="#e67e22"/>
  <rect x="58" y="172" width="8" height="16" fill="#e67e22"/>
  <rect x="71" y="172" width="8" height="16" fill="#e67e22"/>
  <rect x="84" y="172" width="8" height="16" fill="#e67e22"/>
  <rect x="97" y="172" width="8" height="16" fill="#e67e22"/>
  <rect x="110" y="172" width="8" height="16" fill="#e67e22"/>
  <rect x="123" y="172" width="8" height="16" fill="#e67e22"/>
  <rect x="136" y="172" width="8" height="16" fill="#e67e22"/>
  <rect x="149" y="172" width="8" height="16" fill="#e67e22"/>
  <rect x="162" y="172" width="8" height="16" fill="#e67e22"/>
  <rect x="175" y="172" width="8" height="16" fill="#e67e22"/>
  <rect x="188" y="172" width="8" height="16" fill="#e67e22"/>
  <rect x="201" y="172" width="8" height="16" fill="#e67e22"/>
  
  <!-- HTML symbol -->
  <text x="128" y="220" font-family="Arial, sans-serif" font-size="24" font-weight="bold" text-anchor="middle" fill="#ecf0f1">&lt;/&gt;</text>
</svg>
